<svg xmlns="http://www.w3.org/2000/svg" viewBox="0 0 200 190">
  <!-- Folder back panel with top-left tab -->
  <path d="
    M 12,172
    L 12,28
    Q 12,22 18,22
    L 68,22
    Q 74,22 77,28
    L 86,48
    L 184,48
    Q 190,48 190,54
    L 190,172
    Q 190,178 184,178
    L 18,178
    Q 12,178 12,172
    Z
  " fill="#1565C0"/>

  <!-- Teal ticket rotated ~18° clockwise, emerging from folder -->
  <g transform="rotate(18, 118, 96)">
    <!-- Ticket body -->
    <rect x="78" y="14" width="80" height="118" rx="4" fill="#2CBFA8"/>
    <!-- Left perforation notch -->
    <circle cx="78" cy="73" r="10" fill="white"/>
    <!-- Right perforation notch -->
    <circle cx="158" cy="73" r="10" fill="white"/>
    <!-- Blue checkmark -->
    <polyline
      points="96,74 113,97 145,56"
      fill="none"
      stroke="#1565C0"
      stroke-width="12"
      stroke-linecap="round"
      stroke-linejoin="round"
    />
  </g>

  <!-- Folder front flap (covers bottom of ticket) -->
  <path d="
    M 12,130
    L 12,172
    Q 12,178 18,178
    L 184,178
    Q 190,178 190,172
    L 190,130
    Z
  " fill="#1565C0"/>
</svg>
